<svg xmlns="http://www.w3.org/2000/svg" viewBox="0 0 24 24" width="24" height="24" color="#ffffff" fill="none" stroke="#ffffff" stroke-width="1.5" stroke-linecap="round" stroke-linejoin="round">
  <!-- 8-tooth gear outline -->
  <path d="M12 1.5 L13.2 4.2 L15.9 3.6 L16.8 6.3 L19.5 6.6 L19.2 9.3 L21.6 10.5 L20.1 12.9 L21.6 15.3 L19.2 16.5 L19.5 19.2 L16.8 19.5 L15.9 22.2 L13.2 21.6 L12 24 L10.8 21.6 L8.1 22.2 L7.2 19.5 L4.5 19.2 L4.8 16.5 L2.4 15.3 L3.9 12.9 L2.4 10.5 L4.8 9.3 L4.5 6.6 L7.2 6.3 L8.1 3.6 L10.8 4.2 Z"
    transform="scale(0.92) translate(1,1)"/>
  <!-- Inner ring + filled hub -->
  <circle cx="12" cy="12" r="4" />
  <circle cx="12" cy="12" r="1.6" fill="#ffffff" stroke="none"/>
</svg>
